<svg version="1.1" xmlns="http://www.w3.org/2000/svg" viewBox="0 0 1127.8253270709338 857.7883804563496" width="1127.8253270709338" height="857.7883804563496">
  <!-- svg-source:excalidraw -->
  
  <defs>
    <style>
      @font-face {
        font-family: "Virgil";
        src: url("https://excalidraw.com/Virgil.woff2");
      }
      @font-face {
        font-family: "Cascadia";
        src: url("https://excalidraw.com/Cascadia.woff2");
      }
    </style>
  </defs>
  <rect x="0" y="0" width="1127.8253270709338" height="857.7883804563496" fill="#ffffff"></rect><g stroke-linecap="round" transform="translate(712.3887207031246 247.72142314608118) rotate(0 115 44.5)"><path d="M0.02 0.01 C47.22 1.74, 93.42 0.55, 230.35 1.69 M-0.73 0.58 C68.47 -0.84, 137.11 -0.98, 229.47 -0.23 M228.62 -0.99 C230.89 23.5, 231.05 46.76, 228.26 88.5 M229.4 0.81 C229.65 34.91, 229.89 68.1, 229.42 88.21 M229.81 88.53 C161.2 86.34, 91.57 89.51, -0.78 89.97 M230.42 88.25 C143.36 89.97, 55.8 89.81, 0.41 88.45 M-0.73 88.04 C-1.25 68.74, 0.25 48.22, 1.69 -0.87 M0.8 88.35 C1.13 69.99, -0.12 53.43, 0.51 -0.92" stroke="#000000" stroke-width="1" fill="none"></path></g><g transform="translate(788.3887207031246 283.7214231460812) rotate(0 40.5 13)"><text x="0" y="18" font-family="Virgil, Segoe UI Emoji" font-size="20px" fill="#000000" text-anchor="start" style="white-space: pre;" direction="ltr">Tip Pool</text></g><g stroke-linecap="round" transform="translate(376.14735243055566 218.015873015873) rotate(0 96.66666666666663 70.55555555555554)"><path d="M96.58 -0.6 C128.15 23.3, 162.85 46.1, 194.99 69.6 M96.81 -0.77 C126.32 21.5, 156.62 44.82, 193.72 70.84 M194.48 69.05 C155.91 98.87, 122.59 124.09, 98.9 141.05 M192.46 71.72 C168.62 87.91, 143.29 107.09, 97.14 141.87 M97.19 140.46 C59.66 112.61, 20.32 87.16, 1.27 70.68 M97.38 142.06 C70.91 123.67, 46.45 105.42, 0.96 70.63 M0.72 70.58 C34.96 46.48, 71.34 16.69, 95.87 0.38 M0.53 70.22 C37.31 43.04, 75.77 17.48, 96.62 -0.31" stroke="#000000" stroke-width="1" fill="none"></path></g><g transform="translate(417.20290798611086 273.9047619047619) rotate(0 54.5 13)"><text x="0" y="18" font-family="Virgil, Segoe UI Emoji" font-size="20px" fill="#000000" text-anchor="start" style="white-space: pre;" direction="ltr">CreatePool</text></g><g stroke-linecap="round" transform="translate(368.14980158730225 10) rotate(0 96.66666666666669 70.55555555555557)"><path d="M98.36 -1.38 C125.81 21.94, 152.81 41.41, 194.13 69.61 M97.03 -0.98 C131.14 23.69, 163.78 48.35, 193.57 70.09 M194.92 71.69 C157.71 95.5, 121.69 121.87, 95.17 140.95 M193.79 71.53 C154.03 99.54, 117.25 127.47, 97.29 140.68 M97.78 140.31 C64.44 120.41, 36.48 96.6, -0.64 70.32 M96.92 140.8 C64.74 116.79, 32.52 93.71, -0.55 71.02 M-1.51 72.13 C25.5 53.83, 49.84 34.91, 96.6 -0.09 M-0.76 71.74 C23.7 53.94, 48.95 36.28, 97.78 0.18" stroke="#000000" stroke-width="1" fill="none"></path></g><g transform="translate(424.0386904761913 67.55555555555549) rotate(0 43 13)"><text x="0" y="18" font-family="Virgil, Segoe UI Emoji" font-size="20px" fill="#000000" text-anchor="start" style="white-space: pre;" direction="ltr">Initialize</text></g><g stroke-linecap="round"><g transform="translate(578.1751067164689 289.7422304448279) rotate(0 60.84469409347412 -1.60043909075182)"><path d="M1.01 0.4 C21.17 -0.39, 101.68 -3.16, 121.61 -3.6 M0.07 -0.44 C20.06 -0.53, 100.94 -1.57, 120.85 -2.15" stroke="#000000" stroke-width="1" fill="none"></path></g><g transform="translate(578.1751067164689 289.7422304448279) rotate(0 60.84469409347412 -1.60043909075182)"><path d="M93.52 9.23 C102.29 3.56, 114.42 -0.85, 121.08 -0.63 M93.8 8.06 C103.2 5.23, 115.01 0.44, 120.89 -2.95" stroke="#000000" stroke-width="1" fill="none"></path></g><g transform="translate(578.1751067164689 289.7422304448279) rotate(0 60.84469409347412 -1.60043909075182)"><path d="M93.12 -11.29 C102.22 -9.75, 114.49 -6.95, 121.08 -0.63 M93.4 -12.45 C103.1 -7.13, 115.08 -3.78, 120.89 -2.95" stroke="#000000" stroke-width="1" fill="none"></path></g></g><g stroke-linecap="round" transform="translate(25.476190476190595 31.666666666666742) rotate(0 117.22222222222223 48.33333333333334)"><path d="M102.63 -0.4 C117.49 -1.58, 136.6 0.96, 151.96 2.94 C167.31 4.92, 182.87 7.43, 194.75 11.47 C206.63 15.51, 216.75 21.21, 223.23 27.17 C229.7 33.13, 233.24 40.58, 233.58 47.24 C233.91 53.91, 231.23 61.07, 225.25 67.16 C219.27 73.25, 209.15 79.22, 197.71 83.77 C186.27 88.32, 171.33 92.39, 156.63 94.45 C141.93 96.51, 125.12 96.84, 109.51 96.13 C93.9 95.42, 76.93 93.03, 62.95 90.18 C48.98 87.32, 35.56 83.95, 25.67 79.02 C15.78 74.09, 7.67 67.02, 3.59 60.59 C-0.49 54.16, -1.43 46.89, 1.19 40.44 C3.82 33.99, 10.6 27.31, 19.35 21.88 C28.09 16.46, 40.31 11.35, 53.66 7.89 C67.01 4.44, 90.21 2.35, 99.43 1.17 C108.65 -0.01, 106.58 0.94, 108.97 0.82 C111.36 0.71, 113.52 -0.22, 113.78 0.47 M94.3 0.87 C108.46 -1.03, 125.56 0.08, 140.59 1.69 C155.63 3.3, 171.43 7.03, 184.52 10.54 C197.61 14.04, 211.09 17.35, 219.13 22.72 C227.17 28.08, 231.14 36.28, 232.76 42.75 C234.38 49.21, 233.27 55.06, 228.86 61.49 C224.44 67.92, 216.76 76.01, 206.27 81.34 C195.78 86.67, 180.3 90.86, 165.93 93.47 C151.56 96.07, 135.4 96.89, 120.05 96.96 C104.7 97.02, 88.19 96.52, 73.83 93.84 C59.48 91.17, 44.92 85.68, 33.94 80.9 C22.96 76.12, 13.43 70.93, 7.94 65.16 C2.45 59.39, 0.17 52.86, 1.02 46.27 C1.88 39.69, 5.68 31.77, 13.06 25.66 C20.44 19.55, 33.05 13.82, 45.3 9.59 C57.55 5.36, 78.68 1.46, 86.56 0.28 C94.44 -0.89, 91.5 2.39, 92.59 2.53 C93.69 2.67, 92.71 0.58, 93.12 1.14" stroke="#000000" stroke-width="1" fill="none"></path></g><g transform="translate(118.80952380952385 67.00000000000006) rotate(0 25 13)"><text x="25" y="18" font-family="Virgil, Segoe UI Emoji" font-size="20px" fill="#000000" text-anchor="middle" style="white-space: pre;" direction="ltr">User1</text></g><g stroke-linecap="round" transform="translate(9.999999999999886 251.90476190476204) rotate(0 117.22222222222223 48.333333333333314)"><path d="M108.7 -0.01 C123.62 -1.41, 141.19 0.02, 155.95 2.28 C170.72 4.54, 185.75 8.92, 197.29 13.55 C208.84 18.17, 219.15 24.15, 225.24 30.03 C231.33 35.9, 234.07 42.34, 233.83 48.8 C233.6 55.27, 230.22 62.95, 223.84 68.83 C217.45 74.7, 207.36 79.76, 195.49 84.06 C183.63 88.35, 167.84 92.65, 152.63 94.58 C137.42 96.51, 120.06 96.32, 104.25 95.64 C88.44 94.96, 71.47 93.6, 57.75 90.5 C44.03 87.41, 31.21 82.44, 21.96 77.06 C12.7 71.68, 5.58 64.72, 2.23 58.21 C-1.12 51.71, -1.43 44.44, 1.84 38.04 C5.11 31.65, 12.57 25.17, 21.85 19.86 C31.13 14.55, 43.94 9.37, 57.52 6.18 C71.1 2.99, 94.44 1.66, 103.33 0.74 C112.21 -0.19, 108.72 0.73, 110.83 0.64 C112.94 0.54, 115.74 -0.4, 115.98 0.16 M121.13 1.18 C136.3 0.6, 153.41 1.98, 167.3 4.33 C181.2 6.68, 194.18 10.14, 204.5 15.26 C214.81 20.38, 224.42 28.86, 229.18 35.06 C233.94 41.26, 234.66 46.31, 233.06 52.46 C231.46 58.6, 227.27 66.02, 219.59 71.95 C211.91 77.88, 200.16 84.13, 186.98 88.06 C173.81 91.99, 156.28 94.14, 140.57 95.54 C124.86 96.93, 108.24 97.52, 92.7 96.43 C77.16 95.33, 59.88 93.17, 47.32 88.98 C34.77 84.8, 25.21 77.18, 17.39 71.31 C9.57 65.45, 2.42 59.79, 0.43 53.8 C-1.57 47.8, 0.63 41.72, 5.43 35.32 C10.24 28.92, 19.07 20.74, 29.28 15.38 C39.48 10.02, 52.43 5.78, 66.66 3.16 C80.89 0.54, 105.73 0.13, 114.66 -0.34 C123.6 -0.81, 119.63 0.27, 120.26 0.35 C120.88 0.42, 118.51 -0.85, 118.42 0.1" stroke="#000000" stroke-width="1" fill="none"></path></g><g transform="translate(98.83333333333292 287.2380952380954) rotate(0 29.5 13)"><text x="29.5" y="18" font-family="Virgil, Segoe UI Emoji" font-size="20px" fill="#000000" text-anchor="middle" style="white-space: pre;" direction="ltr">User2</text></g><g stroke-linecap="round" transform="translate(37.46031746031758 700.1114521329368) rotate(0 117.22222222222223 48.33333333333337)"><path d="M97.78 0.46 C112.43 -1.28, 130.99 0.05, 146.19 1.85 C161.39 3.65, 176.42 7.3, 188.96 11.24 C201.51 15.19, 213.92 19.99, 221.46 25.52 C229 31.06, 233.07 38.1, 234.19 44.46 C235.3 50.82, 233.57 57.46, 228.15 63.7 C222.73 69.93, 212.58 76.86, 201.67 81.88 C190.75 86.89, 177.22 91.2, 162.65 93.79 C148.08 96.39, 130 97.59, 114.27 97.43 C98.54 97.28, 82.32 95.62, 68.27 92.88 C54.22 90.13, 40.46 85.82, 29.98 80.96 C19.51 76.1, 10.32 70.12, 5.43 63.73 C0.53 57.34, -1.03 49.15, 0.61 42.63 C2.25 36.1, 7.17 30.02, 15.26 24.56 C23.35 19.11, 36.2 13.92, 49.16 9.91 C62.11 5.89, 83.85 1.96, 92.98 0.48 C102.11 -1, 101.09 0.94, 103.94 1.02 C106.79 1.11, 110 0.25, 110.08 0.96 M169.74 4.88 C183.92 6.69, 196.73 11.64, 206.97 16.89 C217.22 22.15, 226.69 30, 231.2 36.42 C235.71 42.85, 236.69 49.02, 234.02 55.44 C231.34 61.85, 223.58 69.47, 215.14 74.89 C206.71 80.32, 196.08 84.41, 183.38 87.97 C170.68 91.54, 154.79 94.96, 138.94 96.28 C123.1 97.59, 103.67 97.39, 88.31 95.89 C72.95 94.39, 59.18 91.6, 46.78 87.27 C34.37 82.93, 21.69 75.82, 13.9 69.86 C6.11 63.91, 1.47 57.56, 0.04 51.54 C-1.38 45.53, -0.01 39.9, 5.34 33.77 C10.69 27.64, 21.19 19.64, 32.12 14.76 C43.05 9.88, 56.27 6.8, 70.94 4.49 C85.61 2.18, 104.15 0.79, 120.14 0.92 C136.12 1.05, 158.56 4.48, 166.85 5.27 C175.15 6.05, 169.67 5.67, 169.91 5.64 C170.15 5.62, 169.1 4.47, 168.31 5.13" stroke="#000000" stroke-width="1" fill="none"></path></g><g transform="translate(126.79365079365061 735.4447854662703) rotate(0 29 13)"><text x="29" y="18" font-family="Virgil, Segoe UI Emoji" font-size="20px" fill="#000000" text-anchor="middle" style="white-space: pre;" direction="ltr">User3</text></g><g stroke-linecap="round" transform="translate(704.8977942088293 41.64398328993042) rotate(0 115 44.49999999999997)"><path d="M-0.65 0.89 C55.55 0.98, 115.61 2.13, 228.68 1.12 M0.74 0.72 C61.96 -0.84, 122.63 -1.03, 230.55 0.37 M229.42 1.62 C231.46 16.22, 230.98 35.67, 230.97 90.19 M230.53 -0.93 C229.13 25.22, 229.47 49.71, 230.94 88.75 M230.69 90.27 C158.99 87.11, 88.41 87.97, 1.25 88.6 M229.79 89.71 C183.58 91.17, 136.73 89.97, 0.78 88.17 M-1.61 87.02 C0.32 65.05, 1.39 38.59, 0.66 -0.62 M0.84 88.56 C-1.61 68.8, -0.67 47.51, 0.45 0.91" stroke="#000000" stroke-width="1" fill="none"></path></g><g transform="translate(793.8977942088293 73.14398328993042) rotate(0 26 13)"><text x="26" y="18" font-family="Virgil, Segoe UI Emoji" font-size="20px" fill="#000000" text-anchor="middle" style="white-space: pre;" direction="ltr">Vault</text></g><g stroke-linecap="round"><g transform="translate(562.5465988466399 79.82889062873141) rotate(0 67.00589141501132 0.311833564493611)"><path d="M-0.87 -0.62 C21.61 -0.7, 112.36 0.7, 134.88 0.71 M0.88 1.67 C23.24 1.75, 112.07 -0.84, 134.15 -1.04" stroke="#000000" stroke-width="1" fill="none"></path></g><g transform="translate(562.5465988466399 79.82889062873141) rotate(0 67.00589141501132 0.311833564493611)"><path d="M105.13 10.48 C115.64 6.38, 121.89 4.55, 132.7 -1.05 M105.43 9.94 C111.6 8.29, 118.18 4.95, 134.17 -0.2" stroke="#000000" stroke-width="1" fill="none"></path></g><g transform="translate(562.5465988466399 79.82889062873141) rotate(0 67.00589141501132 0.311833564493611)"><path d="M104.72 -10.03 C115.56 -7.98, 121.93 -3.66, 132.7 -1.05 M105.01 -10.58 C111.45 -7.72, 118.12 -6.56, 134.17 -0.2" stroke="#000000" stroke-width="1" fill="none"></path></g></g><g stroke-linecap="round"><g transform="translate(709.0076676410915 140.82573784722229) rotate(0 -88.90968894600849 52.98621393554757)"><path d="M0.35 -1.12 C-29.38 16.49, -148.7 87.95, -178.17 106.12 M-0.93 0.9 C-30.28 18.6, -146.55 89.6, -175.84 107.09" stroke="#000000" stroke-width="1" fill="none"></path></g><g transform="translate(709.0076676410915 140.82573784722229) rotate(0 -88.90968894600849 52.98621393554757)"><path d="M-158.9 82.51 C-164.64 92.8, -167.63 97.33, -177.53 106.74 M-156.37 84.12 C-164.55 92.51, -170.65 100.32, -176.09 106.13" stroke="#000000" stroke-width="1" fill="none"></path></g><g transform="translate(709.0076676410915 140.82573784722229) rotate(0 -88.90968894600849 52.98621393554757)"><path d="M-148.28 100.07 C-157.42 104.87, -163.75 103.87, -177.53 106.74 M-145.75 101.68 C-157.68 103.56, -167.71 104.87, -176.09 106.13" stroke="#000000" stroke-width="1" fill="none"></path></g></g><g stroke-linecap="round" transform="translate(386.9047619047625 668.943374875992) rotate(0 96.66666666666669 70.55555555555554)"><path d="M97.73 0.19 C128.69 23.72, 158.85 46.89, 194.15 69.33 M97.53 0.44 C134.24 26.99, 171.44 54.55, 193.25 70.78 M193.34 70.51 C173.53 83.57, 153.2 99.09, 96.99 141.46 M193.01 71.07 C171.76 87.49, 148.3 104.77, 97.73 141.39 M96.1 142.62 C61.67 114.09, 29.22 88.55, 1.66 71.16 M97.81 140.95 C60.88 114.59, 23.25 87.49, 0.02 70.04 M-0.29 70.67 C30.58 46, 65.07 25.74, 95.05 0.18 M-0.31 70.31 C21.22 56.06, 42.71 40.77, 97.7 -0.76" stroke="#000000" stroke-width="1" fill="none"></path></g><g transform="translate(470.18253968253975 728.1655970982142) rotate(0 15 13)"><text x="0" y="18" font-family="Virgil, Segoe UI Emoji" font-size="20px" fill="#000000" text-anchor="start" style="white-space: pre;" direction="ltr">Tip</text></g><g stroke-linecap="round" transform="translate(368.3333333333336 446.9226112971237) rotate(0 96.66666666666669 70.55555555555554)"><path d="M97.45 -1.65 C125.78 20.37, 149.7 37.46, 194.83 70.68 M96.84 -1 C130.51 23.88, 163.93 49.41, 193.89 70.51 M193.58 70.19 C171.26 88.56, 145.15 103.47, 98.2 140.79 M194.12 70.44 C170.07 89.27, 146.83 106.2, 97.04 140.52 M96.54 140.34 C74.19 126.07, 54.7 110.2, -1.69 70.51 M96.96 141.31 C58.2 113.77, 21.39 86.41, -0.41 70.24 M-1.26 72.46 C32 48.43, 63.64 23.86, 98.66 1.3 M-0.44 71.75 C37.93 43.25, 75.02 17.68, 96.3 0.32" stroke="#000000" stroke-width="1" fill="none"></path></g><g transform="translate(426.0555555555553 507.25594463045695) rotate(0 42.99999999999994 13)"><text x="0" y="18" font-family="Virgil, Segoe UI Emoji" font-size="20px" fill="#000000" text-anchor="start" style="white-space: pre;" direction="ltr">Withdraw</text></g><g stroke-linecap="round"><g transform="translate(252.2657941293412 294.0746023239593) rotate(0 56.77509423792503 -1.1884939206732383)"><path d="M1.12 -0.79 C19.74 -1.31, 92.55 -3.42, 111.16 -3.79 M0.24 1.41 C19.28 1.08, 94.63 -2.21, 113.31 -2.74" stroke="#000000" stroke-width="1" fill="none"></path></g><g transform="translate(252.2657941293412 294.0746023239593) rotate(0 56.77509423792503 -1.1884939206732383)"><path d="M84.19 6.76 C90.99 6.4, 99.27 2.38, 113.61 -4.41 M84.54 7.61 C91.39 6.5, 98.51 3.23, 113.14 -3.12" stroke="#000000" stroke-width="1" fill="none"></path></g><g transform="translate(252.2657941293412 294.0746023239593) rotate(0 56.77509423792503 -1.1884939206732383)"><path d="M83.44 -13.75 C90.31 -8.98, 98.77 -7.85, 113.61 -4.41 M83.79 -12.9 C90.76 -9.15, 98.06 -7.55, 113.14 -3.12" stroke="#000000" stroke-width="1" fill="none"></path></g></g><g transform="translate(306.1111111111112 248.57245938740084) rotate(0 10 13)"><text x="0" y="18" font-family="Virgil, Segoe UI Emoji" font-size="20px" fill="#000000" text-anchor="start" style="white-space: pre;" direction="ltr">2.</text></g><g stroke-linecap="round"><g transform="translate(222.18798732649554 343.9271101090569) rotate(0 84.80018285320568 70.8086663951878)"><path d="M-0.92 0.8 C27.23 24.32, 139.94 116.7, 168.31 140.13 M0.8 0.18 C29.36 23.96, 142.55 118.22, 170.52 141.44" stroke="#000000" stroke-width="1" fill="none"></path></g><g transform="translate(222.18798732649554 343.9271101090569) rotate(0 84.80018285320568 70.8086663951878)"><path d="M143.62 129.7 C148.64 134.18, 157.89 137.27, 169.56 143.23 M141.35 131.51 C149.51 132.86, 156.01 136.92, 171.09 142.35" stroke="#000000" stroke-width="1" fill="none"></path></g><g transform="translate(222.18798732649554 343.9271101090569) rotate(0 84.80018285320568 70.8086663951878)"><path d="M156.74 113.92 C158.31 122.29, 164.23 129.38, 169.56 143.23 M154.47 115.73 C159.26 121.08, 162.47 129.1, 171.09 142.35" stroke="#000000" stroke-width="1" fill="none"></path></g></g><g transform="translate(311.55555555555543 392.35023716517867) rotate(0 9 13)"><text x="9" y="18" font-family="Virgil, Segoe UI Emoji" font-size="20px" fill="#000000" text-anchor="middle" style="white-space: pre;" direction="ltr">4.</text></g><g stroke-linecap="round"><g transform="translate(266.5873015873017 78.60351562500011) rotate(0 45.42703749496076 -1.1828260368020835)"><path d="M-0.55 0.12 C14.51 0.05, 76.3 -0.37, 91.4 -0.62 M1.36 -0.87 C16.19 -1.28, 75.43 -2.6, 90.61 -2.48" stroke="#000000" stroke-width="1" fill="none"></path></g><g transform="translate(266.5873015873017 78.60351562500011) rotate(0 45.42703749496076 -1.1828260368020835)"><path d="M62.71 8.53 C74.29 2.35, 84 -1.18, 89.09 -2.93 M61.96 7.51 C71.17 5.15, 80.86 1.13, 90.02 -1.95" stroke="#000000" stroke-width="1" fill="none"></path></g><g transform="translate(266.5873015873017 78.60351562500011) rotate(0 45.42703749496076 -1.1828260368020835)"><path d="M62.52 -11.99 C74.14 -10.18, 83.92 -5.72, 89.09 -2.93 M61.76 -13.01 C71.2 -8.61, 80.95 -5.86, 90.02 -1.95" stroke="#000000" stroke-width="1" fill="none"></path></g></g><g transform="translate(295.53174603174625 53.146402994791856) rotate(0 5.5 13)"><text x="0" y="18" font-family="Virgil, Segoe UI Emoji" font-size="20px" fill="#000000" text-anchor="start" style="white-space: pre;" direction="ltr">1.</text></g><g stroke-linecap="round"><g transform="translate(287.9367100262763 744.7958409091866) rotate(0 43.18610814711684 -0.3191691865345092)"><path d="M0.65 0.57 C15.28 0.21, 72.27 -1.25, 86.85 -1.21 M-0.47 -0.18 C14.04 -0.48, 70.96 0.02, 85.66 -0.11" stroke="#000000" stroke-width="1" fill="none"></path></g><g transform="translate(287.9367100262763 744.7958409091866) rotate(0 43.18610814711684 -0.3191691865345092)"><path d="M58.41 9.38 C62.27 9.04, 71.9 4.25, 87.09 -0.95 M57.1 10.3 C66.05 6.76, 73.88 5.14, 85.96 -0.54" stroke="#000000" stroke-width="1" fill="none"></path></g><g transform="translate(287.9367100262763 744.7958409091866) rotate(0 43.18610814711684 -0.3191691865345092)"><path d="M58.43 -11.14 C62.44 -6.92, 72.07 -7.15, 87.09 -0.95 M57.11 -10.22 C65.92 -8.18, 73.74 -4.22, 85.96 -0.54" stroke="#000000" stroke-width="1" fill="none"></path></g></g><g transform="translate(315.79365079365095 717.4321172805062) rotate(0 9.5 13)"><text x="0" y="18" font-family="Virgil, Segoe UI Emoji" font-size="20px" fill="#000000" text-anchor="start" style="white-space: pre;" direction="ltr">3.</text></g><g stroke-linecap="round"><g transform="translate(699.373578428731 350.299135023948) rotate(0 -80.36072338030806 69.76054575244183)"><path d="M-0.29 1.04 C-27.3 24.16, -134.69 114.87, -161.87 137.77 M1.76 0.55 C-25.38 23.89, -135.38 115.76, -162.49 138.98" stroke="#000000" stroke-width="1" fill="none"></path></g><g transform="translate(699.373578428731 350.299135023948) rotate(0 -80.36072338030806 69.76054575244183)"><path d="M-145.83 113.99 C-153.61 119.86, -157.19 129.7, -161.24 139.53 M-148.18 112.29 C-152.13 121.71, -158.28 132.49, -161.66 139.88" stroke="#000000" stroke-width="1" fill="none"></path></g><g transform="translate(699.373578428731 350.299135023948) rotate(0 -80.36072338030806 69.76054575244183)"><path d="M-132.59 129.67 C-144.48 130.49, -152.3 135.31, -161.24 139.53 M-134.94 127.97 C-143.56 131.68, -154.47 136.83, -161.66 139.88" stroke="#000000" stroke-width="1" fill="none"></path></g></g><g stroke-linecap="round"><g transform="translate(527.3623509577594 686.6281197165986) rotate(0 114.6736513247173 -168.38404222185483)"><path d="M1.15 -0.28 C39.15 -56.42, 191.3 -280.62, 229.06 -336.49 M0.29 -1.47 C38.1 -57.47, 190.77 -279.16, 228.47 -335.16" stroke="#000000" stroke-width="1" fill="none"></path></g><g transform="translate(527.3623509577594 686.6281197165986) rotate(0 114.6736513247173 -168.38404222185483)"><path d="M220.6 -304.93 C223.21 -318.58, 227.78 -330.51, 228.43 -336.06 M220.17 -305.29 C222.81 -311.97, 224.32 -319.5, 229.24 -334.46" stroke="#000000" stroke-width="1" fill="none"></path></g><g transform="translate(527.3623509577594 686.6281197165986) rotate(0 114.6736513247173 -168.38404222185483)"><path d="M203.65 -316.49 C212.85 -325.82, 224.01 -333.27, 228.43 -336.06 M203.22 -316.86 C209.77 -320.85, 215.24 -325.68, 229.24 -334.46" stroke="#000000" stroke-width="1" fill="none"></path></g></g><g transform="translate(818.8253270709338 172.93014671688996) rotate(0 149.5 13)"><text x="0" y="18" font-family="Virgil, Segoe UI Emoji" font-size="20px" fill="#000000" text-anchor="start" style="white-space: pre;" direction="ltr">Donations are stored in vault</text></g><g stroke-linecap="round"><g transform="translate(802.4443746899806 248.4493931361609) rotate(0 0.7725349030409916 -58.0796556320191)"><path d="M-0.26 0.69 C-0.23 -18.28, 0.92 -95.47, 0.96 -114.88 M1.8 0 C1.62 -19.26, -0.04 -97.72, 0.05 -116.84" stroke="#000000" stroke-width="1" fill="none"></path></g></g><g transform="translate(373.10063244047683 160.91841052827408) rotate(0 90.5 13)"><text x="0" y="18" font-family="Virgil, Segoe UI Emoji" font-size="20px" fill="#000000" text-anchor="start" style="white-space: pre;" direction="ltr">Initialize contract</text></g><g transform="translate(359.2911086309531 374.0195157490082) rotate(0 127.00000000000006 13)"><text x="0" y="18" font-family="Virgil, Segoe UI Emoji" font-size="20px" fill="#000000" text-anchor="start" style="white-space: pre;" direction="ltr">create pool for donations</text></g><g transform="translate(410.3590107266874 821.7883804563496) rotate(0 73.49999999999994 13)"><text x="0" y="18" font-family="Virgil, Segoe UI Emoji" font-size="20px" fill="#000000" text-anchor="start" style="white-space: pre;" direction="ltr">donate to pool</text></g><g transform="translate(373.065359933036 596.0740947420635) rotate(0 91.5 13)"><text x="0" y="18" font-family="Virgil, Segoe UI Emoji" font-size="20px" fill="#000000" text-anchor="start" style="white-space: pre;" direction="ltr">withdraw from pool</text></g></svg>